<?xml version="1.0" encoding="UTF-8" standalone="no"?>
<!DOCTYPE svg PUBLIC "-//W3C//DTD SVG 1.1//EN" "http://www.w3.org/Graphics/SVG/1.1/DTD/svg11.dtd">
<svg width="100%" height="100%" viewBox="0 0 1024 1024" version="1.1" xmlns="http://www.w3.org/2000/svg" xmlns:xlink="http://www.w3.org/1999/xlink" xml:space="preserve" xmlns:serif="http://www.serif.com/" style="fill-rule:evenodd;clip-rule:evenodd;stroke-linejoin:round;stroke-miterlimit:2;">
    <circle cx="512" cy="512" r="512"/>
    <g transform="matrix(1,0,0,1,-3.27381,0.273899)">
        <g transform="matrix(1.40604,0,0,1.40604,-204.619,-208.869)">
            <path d="M507,171L517,171L522,176L523,179L524,192L534,208L549,223L569,238L579,245L600,256L625,265L655,273L674,276L683,277L713,277L735,274L744,268L751,261L753,260L762,261L767,265L769,269L769,277L762,285L757,291L753,302L752,307L752,335L755,361L760,381L771,413L781,433L791,449L801,462L813,476L822,485L836,495L845,498L854,500L859,505L860,507L860,515L854,522L841,524L827,533L815,544L807,552L798,563L789,575L780,591L770,612L763,631L756,661L754,673L753,684L753,715L756,729L762,739L768,746L769,748L769,758L764,763L758,766L751,765L743,759L737,755L721,751L715,750L677,750L649,755L633,759L609,768L592,776L571,788L554,801L543,810L531,821L526,828L523,836L521,850L516,854L507,854L501,850L500,848L498,832L494,824L483,812L472,802L459,792L441,781L418,769L394,760L369,754L345,750L303,750L291,753L281,758L271,765L264,766L258,762L255,758L254,750L259,741L264,735L268,719L270,698L270,682L266,655L258,624L248,599L238,580L225,561L216,550L205,538L192,527L187,524L170,521L165,516L164,514L164,506L170,499L185,497L194,491L207,480L216,471L227,457L234,449L244,432L255,407L260,391L266,368L270,342L270,309L268,296L264,288L256,279L255,277L255,269L260,263L263,262L270,262L278,266L286,272L297,276L311,278L341,278L367,274L389,268L419,257L445,243L464,231L478,219L486,212L493,204L498,194L500,179L504,173L507,171ZM499,229L488,239L472,251L451,264L431,275L402,286L386,292L364,297L338,300L311,300L313,304L389,380L388,384L379,399L375,397L293,315L292,315L291,342L289,361L283,388L277,408L268,430L257,452L247,467L234,483L225,493L221,499L268,499L350,498L352,496L355,474L361,455L365,446L366,447L368,460L371,465L375,468L377,468L376,476L374,483L374,499L500,500L500,502L498,502L489,513L481,522L375,523L374,527L376,534L378,550L383,565L391,581L398,593L407,603L413,599L465,547L470,545L467,562L465,578L424,619L426,623L437,631L452,639L468,645L467,649L463,655L460,664L444,658L427,649L409,636L405,637L368,674L368,676L364,678L350,692L342,699L317,724L316,727L342,728L366,731L390,736L414,744L437,754L457,765L476,778L489,788L498,797L500,797L501,728L519,728L522,727L522,754L523,797L529,793L541,783L556,773L572,763L588,754L608,745L636,736L660,731L667,730L706,728L704,724L693,712L687,705L679,698L614,633L610,634L600,643L585,653L564,663L561,664L558,655L553,646L559,644L576,635L590,625L598,618L592,611L554,573L555,568L565,557L566,555L570,557L588,575L595,583L613,601L617,599L627,587L636,572L641,561L646,541L647,535L647,522L606,521L621,506L626,500L647,499L644,479L642,477L643,469L647,452L648,439L658,458L663,471L667,490L668,498L669,499L787,499L805,498L799,491L785,477L774,463L764,448L753,427L746,408L739,383L734,361L732,347L730,317L723,323L709,336L709,338L705,340L682,363L674,370L659,385L651,392L643,400L641,400L636,387L633,380L637,378L705,310L716,301L715,299L700,298L669,297L649,294L621,287L605,281L579,270L563,261L546,249L536,240L527,231L524,230L523,231L522,322L501,321L501,229L499,229ZM669,520L803,520L801,524L792,533L783,544L774,556L763,574L752,596L745,614L738,641L734,670L733,681L733,719L726,713L663,650L656,642L630,616L632,612L643,598L652,584L660,565L667,541L669,520ZM242,520L336,520L352,521L356,544L361,562L370,583L380,600L391,614L391,618L384,625L377,633L365,645L357,652L346,663L338,670L312,696L307,700L300,708L292,715L291,715L291,682L286,646L280,621L271,597L259,572L251,558L240,543L228,529L221,522L221,521L242,520Z" style="fill:rgb(115,115,115);"/>
        </g>
        <g transform="matrix(1.40604,0,0,1.40604,-197.589,-208.869)">
            <g transform="matrix(1,0,0,1,494,335)">
                <path d="M0,0L30,0L51,3L73,9L85,14L98,21L111,31L119,39L128,52L135,67L139,83L141,97L141,112L137,132L132,144L122,158L104,176L94,184L83,193L71,204L59,216L49,229L48,232L47,244L46,270L-12,270L-15,266L-15,242L-14,221L-11,209L-6,199L2,188L16,173L23,165L32,156L40,149L52,137L62,123L66,115L68,107L68,96L64,85L58,77L49,70L36,65L27,63L8,62L-6,64L-17,68L-27,74L-35,82L-43,97L-49,122L-111,122L-115,119L-115,106L-112,90L-106,74L-97,58L-88,46L-79,36L-67,24L-53,14L-40,8L-27,4L-9,1L0,0Z" style="fill:white;fill-rule:nonzero;"/>
            </g>
            <g transform="matrix(1,0,0,1,507,637)">
                <path d="M0,0L9,0L17,2L27,7L36,16L42,28L43,33L43,46L40,56L33,66L25,73L17,77L10,79L-4,79L-15,75L-23,69L-30,61L-35,50L-36,45L-36,34L-32,21L-26,13L-17,5L-7,1L0,0Z" style="fill:white;fill-rule:nonzero;"/>
            </g>
        </g>
    </g>
</svg>
